<svg data-v-0dd9719b="" version="1.0" xmlns="http://www.w3.org/2000/svg" xmlns:xlink="http://www.w3.org/1999/xlink" width="100%" height="100%" viewBox="0 0 340.000000 250.000000" preserveAspectRatio="xMidYMid meet" color-interpolation-filters="sRGB" style="margin: auto;"> <rect data-v-0dd9719b="" x="0" y="0" width="100%" height="100%" fill="#fff" fill-opacity="1" class="background"></rect> <rect data-v-0dd9719b="" x="0" y="0" width="100%" height="100%" fill="url(#watermark)" fill-opacity="1" class="watermarklayer"></rect> <g data-v-0dd9719b="" fill="#333" class="icon-text-wrapper icon-svg-group iconsvg" transform="translate(79.77000427246094,76.35539245605469)"><g class="iconsvg-imagesvg" transform="translate(60.22999572753906,0)"><g><rect fill="#333" fill-opacity="0" stroke-width="2" x="0" y="0" width="60" height="60.019206145966706" class="image-rect"></rect> <svg x="0" y="0" width="60" height="60.019206145966706" filtersec="colorsb2038638518" class="image-svg-svg primary" style="overflow: visible;"><svg xmlns="http://www.w3.org/2000/svg" viewBox="-0.0001246929168701172 0 178.12428283691406 178.18145751953125"><path d="M33.37 91.39H2.14c-1.56 0-2.15-.31-2.14-2 .16-24.78 8.88-46 26.37-63.56A87.3 87.3 0 0 1 72.55 1.47 74.44 74.44 0 0 1 87.23 0c1.31 0 2 0 1.1 1.65Q70 34.52 51.75 67.44c-3.2 5.75-6.42 11.5-9.61 17.25-1.09 2-1 2.15 1.28 2.15h17.29a2.59 2.59 0 0 0 2.62-1.53Q83.91 48.13 104.56 11c1.34-2.43 2.74-4.82 4-7.29a1.9 1.9 0 0 1 2.54-1.08c1.13.32 2.27.64 3.41.9 1.35.31 1.47.92.8 2.07-2.77 4.8-5.48 9.64-8.22 14.46Q89.77 50.47 72.44 80.94c-1.67 3-3.47 5.84-5.06 8.83a2.87 2.87 0 0 1-3 1.65c-10.32-.05-20.66-.02-31.01-.03z" fill="#1f65b0"></path><path d="M178.07 89.26a85.21 85.21 0 0 1-10.82 42.82c-.36.66-.59 1.71-1.32 1.76-.91.06-1.1-1.09-1.5-1.76q-18.33-31.46-36.62-62.92c-3.28-5.63-6.59-11.25-9.78-16.93-.94-1.66-1.39-1.43-2.24 0-2.78 4.79-5.6 9.57-8.54 14.28a3.73 3.73 0 0 0 0 4.49q18 30.56 35.82 61.21c3.29 5.63 6.51 11.3 9.84 16.9a1.8 1.8 0 0 1-.36 2.66c-3.71 3.72-3.75 3.79-6.32-.66q-14.87-25.75-29.65-51.56c-5.21-9.08-10.4-18.18-15.68-27.22a2.7 2.7 0 0 1 .08-3.18q15.64-27.36 31.2-54.76c1.5-2.64 1.49-2.69 4.06-1.05 21.91 14 35.38 33.73 40.6 59.13a72.75 72.75 0 0 1 1.16 9.09c.23 2.55.07 5.13.07 7.7z" fill="#fc6d00"></path><path d="M51.86 110.4h46.43a3.72 3.72 0 0 1 3.79 2.1q15 26.19 30.17 52.25c.9 1.55.59 2.25-.94 3a89.72 89.72 0 0 1-52.53 9.81c-23.42-2.74-42.59-13.34-57.92-31.1a78.51 78.51 0 0 1-6.34-8.5c-.35-.54-1.07-1.1-.63-1.82s1.15-.32 1.75-.32c7.91 0 15.82.11 23.73.12h61.42c2.91 0 5.83.09 8.74.19 1.26 0 1.72-.28 1-1.53q-4.58-8.18-9.09-16.36a1.64 1.64 0 0 0-1.66-1H7.55c-1.08 0-2.66.47-3.14-.46A28.26 28.26 0 0 1 2.69 111c-.13-.52.45-.6.87-.62h1.87z" fill="#8abd40"></path></svg></svg> <!----></g></g> <g transform="translate(0,67.01921081542969)"><g data-gra="path-name" fill-rule="" class="tp-name iconsvg-namesvg"><g transform="scale(1)"><g><path d="M21.75-10.76L21.75-10.76Q21.75-7.99 20.79-5.92 19.83-3.84 18.16-2.47 16.49-1.09 14.25-0.4 12.02 0.28 9.45 0.28L9.45 0.28Q8.46 0.28 7.27 0.02 6.09-0.24 4.88-0.64 3.66-1.03 2.54-1.49 1.42-1.94 0.55-2.35L0.55-2.35 1.44-10.68Q3.16-9.65 5.25-9.12 7.34-8.58 9.37-8.58L9.37-8.58Q9.75-8.58 10.3-8.61 10.85-8.64 11.34-8.79 11.84-8.94 12.18-9.25 12.52-9.55 12.52-10.12L12.52-10.12Q12.52-10.5 12.28-10.77 12.04-11.05 11.65-11.22 11.27-11.39 10.78-11.48 10.3-11.57 9.83-11.61 9.37-11.65 8.96-11.65 8.56-11.65 8.32-11.65L8.32-11.65Q6.58-11.65 5.15-12.26 3.72-12.87 2.7-13.95 1.68-15.03 1.11-16.52 0.55-18.01 0.55-19.75L0.55-19.75Q0.55-22.14 1.51-24.03 2.47-25.92 4.08-27.24 5.69-28.57 7.77-29.28 9.85-29.99 12.08-29.99L12.08-29.99Q13.07-29.99 14.12-29.92 15.18-29.84 16.22-29.66 17.26-29.48 18.25-29.2 19.24-28.91 20.13-28.49L20.13-28.49 19.36-20.27Q17.99-20.74 16.48-21.05 14.97-21.37 13.54-21.37L13.54-21.37Q13.27-21.37 12.86-21.36 12.44-21.35 11.99-21.3 11.53-21.25 11.07-21.14 10.6-21.04 10.24-20.87 9.87-20.7 9.65-20.42 9.43-20.13 9.45-19.75L9.45-19.75Q9.47-19.3 9.78-19.03 10.1-18.76 10.59-18.6 11.09-18.45 11.69-18.39 12.28-18.33 12.87-18.32 13.46-18.31 13.96-18.32 14.47-18.33 14.79-18.29L14.79-18.29Q16.41-18.19 17.7-17.6 19-17.02 19.9-16.05 20.8-15.07 21.28-13.73 21.75-12.38 21.75-10.76ZM46.6-19.46L46.6-19.46Q46.6-17.5 46.01-15.98 45.42-14.47 44.4-13.33 43.38-12.2 42.01-11.41 40.63-10.62 39.06-10.13 37.49-9.63 35.81-9.4 34.13-9.17 32.52-9.15L32.52-9.15 32.52 0.28 23.09 0.28Q23.09-4.35 23.11-8.94 23.13-13.54 23.17-18.21L23.17-18.21Q23.21-20.68 23.19-23.15 23.17-25.62 23.29-28.13L23.29-28.13Q25.88-28.89 28.47-29.28 31.06-29.66 33.81-29.66L33.81-29.66Q35.37-29.66 36.93-29.41 38.48-29.16 39.91-28.61 41.34-28.06 42.56-27.24 43.79-26.43 44.68-25.29 45.57-24.16 46.08-22.71 46.6-21.27 46.6-19.46ZM37.61-18.78L37.61-18.78Q37.61-20.09 36.82-20.83 36.02-21.57 34.74-21.57L34.74-21.57Q34.32-21.57 33.86-21.5 33.41-21.43 33-21.33L33-21.33 32.76-15.42Q33.04-15.38 33.3-15.38 33.57-15.38 33.85-15.38L33.85-15.38Q34.58-15.38 35.26-15.62 35.94-15.86 36.46-16.32 36.99-16.77 37.3-17.39 37.61-18.01 37.61-18.78ZM71.43-19.51L71.43-19.51Q71.43-17.93 71.15-16.64 70.88-15.36 70.29-14.29 69.71-13.21 68.77-12.3 67.84-11.39 66.53-10.56L66.53-10.56 71.34-1.98 62.24-0.2 59.12-8.82 56.61-8.74 56.25-0.32 47.55-0.32Q47.65-4.94 47.74-9.51 47.83-14.08 47.95-18.7L47.95-18.7Q47.99-21.02 48.04-23.31 48.08-25.6 48.2-27.92L48.2-27.92Q49.61-28.45 50.99-28.79 52.37-29.14 53.75-29.33 55.14-29.52 56.56-29.59 57.99-29.66 59.49-29.66L59.49-29.66Q61.79-29.66 63.95-29.03 66.1-28.39 67.76-27.11 69.42-25.84 70.42-23.94 71.43-22.03 71.43-19.51ZM62.36-18.86L62.36-18.86Q62.36-19.71 62.13-20.42 61.9-21.12 61.44-21.64 60.98-22.16 60.31-22.45 59.63-22.74 58.72-22.74L58.72-22.74Q58.31-22.74 57.93-22.69 57.54-22.64 57.18-22.54L57.18-22.54 56.86-15.01 57.34-15.01Q58.21-15.01 59.11-15.24 60.01-15.46 60.73-15.92 61.45-16.39 61.91-17.12 62.36-17.85 62.36-18.86ZM72.98-27.92L83.75-28.49 81.52-0.93 72.98-0.49 72.98-27.92ZM103.11-28.69L112.66-29.02 111.21-1.58 100.6-0.61 94.94-15.3 94.05-0.32 84.94-0.32 85.67-29.02 95.79-29.5 102.79-14.93 103.11-28.69ZM113.63-28.89L135.69-28.93 135.49-20.36 129.46-20.11 127.92-0.93 119.38-0.49 119.42-19.67 113.39-19.34 113.63-28.89ZM137.31-29.18L155.96-29.18Q155.84-27.28 155.74-25.41 155.64-23.55 155.48-21.65L155.48-21.65 146.9-21.21 146.7-18.66 152.72-18.66 152.28-12.38 146.21-12.18 146.01-9.23 151.03-9.23 154.59-9.23Q154.46-7 154.33-4.81 154.2-2.61 154.1-0.4L154.1-0.4 136.66 0 137.31-29.18ZM171.46-29.5L181.01-28.37 173.12-14.65 179.84-2.71 171.38-0.08 167.74-8.34 163.45-0.04 154.71-3.2 162.15-14.93 155.36-27.28 164.62-29.5 167.94-21.37 171.46-29.5Z" transform="translate(-0.550000011920929, 29.989999771118164)"></path></g> <!----> <!----> <!----> <!----> <!----> <!----> <!----></g></g> <!----></g></g><defs v-gra="od"></defs></svg>